<svg xmlns="http://www.w3.org/2000/svg" width="1440" height="900" viewBox="0 0 1440 900" role="img" aria-label="BKE Layout Preview workbench screenshot">
  <defs>
    <linearGradient id="bg" x1="0" y1="0" x2="1" y2="1">
      <stop offset="0" stop-color="#101417"/>
      <stop offset="1" stop-color="#080a0c"/>
    </linearGradient>
    <linearGradient id="panel" x1="0" y1="0" x2="0" y2="1">
      <stop offset="0" stop-color="#1d2429"/>
      <stop offset="1" stop-color="#15191d"/>
    </linearGradient>
    <linearGradient id="stage" x1="0" y1="0" x2="1" y2="1">
      <stop offset="0" stop-color="#203342"/>
      <stop offset="0.58" stop-color="#182126"/>
      <stop offset="1" stop-color="#101315"/>
    </linearGradient>
    <filter id="shadow" x="-12%" y="-12%" width="124%" height="124%">
      <feDropShadow dx="0" dy="20" stdDeviation="18" flood-color="#000" flood-opacity="0.42"/>
    </filter>
    <pattern id="grid" width="54" height="54" patternUnits="userSpaceOnUse">
      <path d="M54 0H0V54" fill="none" stroke="#2a3f45" stroke-width="1"/>
    </pattern>
  </defs>

  <rect width="1440" height="900" fill="url(#bg)"/>
  <rect x="0" y="0" width="1440" height="72" fill="#15191d"/>
  <text x="28" y="32" fill="#f2f7f4" font-family="Segoe UI, Microsoft YaHei, sans-serif" font-size="22" font-weight="700">BKE UI Layout Workbench</text>
  <text x="28" y="55" fill="#99aaa6" font-family="Segoe UI, Microsoft YaHei, sans-serif" font-size="13">1920x1080 / sample_project / live script preview</text>

  <g font-family="Segoe UI, Microsoft YaHei, sans-serif" font-size="13" font-weight="600">
    <rect x="922" y="20" width="74" height="34" rx="6" fill="#223039" stroke="#35434d"/>
    <text x="948" y="42" fill="#eef6f2">Render</text>
    <rect x="1006" y="20" width="70" height="34" rx="6" fill="#223039" stroke="#35434d"/>
    <text x="1030" y="42" fill="#eef6f2">Copy</text>
    <rect x="1086" y="20" width="76" height="34" rx="6" fill="#223039" stroke="#35434d"/>
    <text x="1112" y="42" fill="#eef6f2">PNG</text>
    <rect x="1172" y="20" width="88" height="34" rx="6" fill="#263f39" stroke="#65d6ad"/>
    <text x="1200" y="42" fill="#9df0ce">Grid</text>
  </g>

  <rect x="18" y="90" width="388" height="784" fill="url(#panel)" stroke="#303841"/>
  <rect x="18" y="90" width="388" height="45" fill="#1a2025" stroke="#303841"/>
  <text x="38" y="119" fill="#dce8e4" font-family="Segoe UI, Microsoft YaHei, sans-serif" font-size="14" font-weight="700">BKE Source</text>
  <rect x="34" y="152" width="356" height="472" fill="#101418" stroke="#252c33"/>
  <g font-family="Cascadia Mono, Consolas, monospace" font-size="12">
    <text x="50" y="184" fill="#77d7ff">@sprite</text>
    <text x="110" y="184" fill="#c9e879">index</text>
    <text x="153" y="184" fill="#dce8e4">=1000 </text>
    <text x="203" y="184" fill="#c9e879">file</text>
    <text x="240" y="184" fill="#ffd08a">="bg/workbench_day"</text>
    <text x="50" y="216" fill="#77d7ff">@addto</text>
    <text x="110" y="216" fill="#c9e879">index</text>
    <text x="153" y="216" fill="#dce8e4">=1000 </text>
    <text x="203" y="216" fill="#c9e879">pos</text>
    <text x="235" y="216" fill="#c8b6ff">=[0,0]</text>
    <text x="50" y="268" fill="#77d7ff">@sprite</text>
    <text x="110" y="268" fill="#c9e879">index</text>
    <text x="153" y="268" fill="#dce8e4">=1200 </text>
    <text x="203" y="268" fill="#c9e879">file</text>
    <text x="240" y="268" fill="#ffd08a">="ui/panel_main"</text>
    <text x="50" y="300" fill="#77d7ff">@addto</text>
    <text x="110" y="300" fill="#c9e879">index</text>
    <text x="153" y="300" fill="#dce8e4">=1200 </text>
    <text x="203" y="300" fill="#c9e879">pos</text>
    <text x="235" y="300" fill="#c8b6ff">=[88,190]</text>
    <text x="50" y="352" fill="#77d7ff">@button</text>
    <text x="110" y="352" fill="#c9e879">index</text>
    <text x="153" y="352" fill="#dce8e4">=3000 </text>
    <text x="203" y="352" fill="#c9e879">idle</text>
    <text x="240" y="352" fill="#ffd08a">="button_idle"</text>
  </g>
  <rect x="34" y="642" width="356" height="92" rx="6" fill="#141a1f" stroke="#252c33"/>
  <text x="50" y="674" fill="#b9c6c3" font-family="Segoe UI, Microsoft YaHei, sans-serif" font-size="13">Warnings and parser notes stay close to the script.</text>

  <rect x="425" y="90" width="674" height="784" fill="#0c0e10" stroke="#303841"/>
  <rect x="425" y="90" width="674" height="45" fill="#12171b" stroke="#303841"/>
  <text x="444" y="119" fill="#9ba7a5" font-family="Cascadia Mono, Consolas, monospace" font-size="13">x=742 y=418</text>
  <rect x="670" y="100" width="58" height="25" rx="12.5" fill="#101418" stroke="#303841"/>
  <text x="685" y="117" fill="#9df0ce" font-family="Segoe UI, Microsoft YaHei, sans-serif" font-size="12" font-weight="700">125%</text>
  <text x="746" y="118" fill="#c7d4d0" font-family="Segoe UI, Microsoft YaHei, sans-serif" font-size="13">Step 10</text>
  <rect x="810" y="100" width="76" height="25" rx="6" fill="#263f39" stroke="#65d6ad"/>
  <text x="829" y="117" fill="#9df0ce" font-family="Segoe UI, Microsoft YaHei, sans-serif" font-size="12" font-weight="700">Snap</text>
  <text x="902" y="118" fill="#c7d4d0" font-family="Segoe UI, Microsoft YaHei, sans-serif" font-size="13">Auto drag</text>
  <text x="1004" y="119" fill="#dce8e4" font-family="Segoe UI, Microsoft YaHei, sans-serif" font-size="13">index=1200</text>

  <g filter="url(#shadow)">
    <rect x="482" y="186" width="560" height="315" fill="url(#stage)" stroke="#4c5f68" stroke-width="2"/>
    <rect x="482" y="186" width="560" height="315" fill="url(#grid)" opacity="0.72"/>
    <path d="M762 186V501M482 344H1042" stroke="#65d6ad" stroke-width="2" opacity="0.56"/>
    <rect x="512" y="212" width="500" height="258" rx="3" fill="#21313a" stroke="#586a72"/>
    <rect x="548" y="245" width="426" height="178" rx="4" fill="#2c474e" stroke="#7aa4a3" opacity="0.9"/>
    <rect x="622" y="282" width="196" height="104" rx="5" fill="#314651" stroke="#ffd166" stroke-width="3"/>
    <circle cx="864" cy="333" r="44" fill="#65d6ad" opacity="0.78"/>
    <rect x="889" y="416" width="88" height="32" rx="6" fill="#31534b" stroke="#77e2be"/>
    <text x="914" y="437" fill="#f3fff9" font-family="Segoe UI, Microsoft YaHei, sans-serif" font-size="13" font-weight="700">Start</text>
  </g>

  <rect x="1118" y="90" width="304" height="784" fill="url(#panel)" stroke="#303841"/>
  <rect x="1118" y="90" width="304" height="45" fill="#1a2025" stroke="#303841"/>
  <text x="1138" y="119" fill="#dce8e4" font-family="Segoe UI, Microsoft YaHei, sans-serif" font-size="14" font-weight="700">Sprite Tree</text>
  <rect x="1372" y="103" width="31" height="19" rx="9.5" fill="#101418" stroke="#303841"/>
  <text x="1381" y="117" fill="#9ba7a5" font-family="Segoe UI, Microsoft YaHei, sans-serif" font-size="11">5</text>

  <g font-family="Cascadia Mono, Consolas, monospace" font-size="13">
    <rect x="1135" y="151" width="270" height="34" rx="5" fill="#23322f" stroke="#65d6ad"/>
    <text x="1150" y="173" fill="#65d6ad">1200</text>
    <text x="1208" y="173" fill="#dce8e4">ui/panel_main</text>
    <text x="1360" y="173" fill="#9ba7a5">z=2</text>
    <rect x="1135" y="193" width="270" height="34" rx="5" fill="#181e22" stroke="#242c33"/>
    <text x="1150" y="215" fill="#65d6ad">2010</text>
    <text x="1208" y="215" fill="#dce8e4">ui/card_frame</text>
    <text x="1360" y="215" fill="#9ba7a5">z=3</text>
    <rect x="1135" y="235" width="270" height="34" rx="5" fill="#181e22" stroke="#242c33"/>
    <text x="1150" y="257" fill="#65d6ad">3000</text>
    <text x="1208" y="257" fill="#dce8e4">button_idle</text>
    <text x="1352" y="257" fill="#9ba7a5">z=12</text>
  </g>

  <rect x="1118" y="303" width="304" height="45" fill="#1a2025" stroke="#303841"/>
  <text x="1138" y="332" fill="#dce8e4" font-family="Segoe UI, Microsoft YaHei, sans-serif" font-size="14" font-weight="700">Properties</text>
  <g font-family="Segoe UI, Microsoft YaHei, sans-serif" font-size="12">
    <text x="1138" y="375" fill="#9ba7a5">x</text>
    <rect x="1138" y="384" width="126" height="32" rx="5" fill="#11161a" stroke="#303841"/>
    <text x="1150" y="405" fill="#eef3f0">88</text>
    <text x="1280" y="375" fill="#9ba7a5">y</text>
    <rect x="1280" y="384" width="126" height="32" rx="5" fill="#11161a" stroke="#303841"/>
    <text x="1292" y="405" fill="#eef3f0">190</text>
    <text x="1138" y="444" fill="#9ba7a5">opacity</text>
    <rect x="1138" y="453" width="126" height="32" rx="5" fill="#11161a" stroke="#303841"/>
    <text x="1150" y="474" fill="#eef3f0">255</text>
    <text x="1280" y="444" fill="#9ba7a5">anchor</text>
    <rect x="1280" y="453" width="126" height="32" rx="5" fill="#11161a" stroke="#303841"/>
    <text x="1292" y="474" fill="#eef3f0">topleft</text>
  </g>

  <rect x="1118" y="524" width="304" height="45" fill="#1a2025" stroke="#303841"/>
  <text x="1138" y="553" fill="#dce8e4" font-family="Segoe UI, Microsoft YaHei, sans-serif" font-size="14" font-weight="700">Clean Export</text>
  <rect x="1135" y="588" width="270" height="188" rx="5" fill="#101418" stroke="#252c33"/>
  <g font-family="Cascadia Mono, Consolas, monospace" font-size="13">
    <text x="1150" y="620" fill="#77d7ff">@sprite</text>
    <text x="1218" y="620" fill="#c9e879">index</text>
    <text x="1270" y="620" fill="#dce8e4">=1200</text>
    <text x="1150" y="652" fill="#77d7ff">@addto</text>
    <text x="1218" y="652" fill="#c9e879">pos</text>
    <text x="1256" y="652" fill="#c8b6ff">=[88,190]</text>
    <text x="1150" y="704" fill="#77d7ff">@action</text>
    <text x="1218" y="704" fill="#c9e879">mode</text>
    <text x="1264" y="704" fill="#ffd08a">="scaleto"</text>
  </g>
</svg>
